<svg xmlns="http://www.w3.org/2000/svg" width="15" height="15" viewBox="0 0 15 15" fill="none">
  <path fill-rule="evenodd" clip-rule="evenodd" d="M12.375 6.3625C12.1813 4.375 11.0063 1.25 7.37503 1.25C3.74378 1.25 2.56878 4.375 2.37503 6.3625C1.69535 6.62046 1.24702 7.27302 1.25001 8V8.875C1.25001 9.8415 2.03353 10.625 3.00003 10.625C3.96653 10.625 4.75003 9.8415 4.75003 8.875V8C4.74689 7.28871 4.31503 6.64956 3.65628 6.38125C3.78128 5.23125 4.39378 2.5 7.37503 2.5C10.3563 2.5 10.9625 5.23125 11.0875 6.38125C10.4301 6.65014 10.0004 7.28972 10 8V8.875C10.0027 9.54686 10.3885 10.1583 10.9938 10.45C10.7313 10.9438 10.0625 11.6125 8.41878 11.8125C8.0902 11.3136 7.4545 11.1169 6.90156 11.3431C6.34862 11.5692 6.03302 12.1551 6.14833 12.7413C6.26364 13.3274 6.77761 13.75 7.37503 13.75C7.84712 13.7474 8.27746 13.479 8.48753 13.0562C11.1688 12.75 12.025 11.3687 12.2938 10.5562C13.0209 10.3207 13.5098 9.6392 13.5 8.875V8C13.503 7.27302 13.0547 6.62046 12.375 6.3625ZM3.50003 8.875C3.50003 9.15114 3.27617 9.375 3.00003 9.375C2.72389 9.375 2.50003 9.15114 2.50003 8.875V8C2.50003 7.82137 2.59533 7.6563 2.75003 7.56699C2.90473 7.47767 3.09533 7.47767 3.25003 7.56699C3.40473 7.6563 3.50003 7.82137 3.50003 8V8.875ZM11.25 8C11.25 7.72386 11.4739 7.5 11.75 7.5C12.0262 7.5 12.25 7.72386 12.25 8V8.875C12.25 9.15114 12.0262 9.375 11.75 9.375C11.4739 9.375 11.25 9.15114 11.25 8.875V8Z" fill="#FFFFFF"/>
</svg>
