<svg xmlns="http://www.w3.org/2000/svg" width="14" height="15" viewBox="0 0 14 15" fill="none">
  <path fill-rule="evenodd" clip-rule="evenodd" d="M12.8332 7.30435C12.8332 10.6661 10.2215 13.3913 6.99984 13.3913C3.77817 13.3913 1.1665 10.6661 1.1665 7.30435C1.1665 3.94261 3.77817 1.21739 6.99984 1.21739C10.2215 1.21739 12.8332 3.94261 12.8332 7.30435ZM9.35085 5.4598C9.5217 5.63808 9.5217 5.92714 9.35085 6.1054L6.43418 9.14888C6.26332 9.32717 5.98635 9.32717 5.81548 9.14888L4.64881 7.93149C4.47796 7.7532 4.47796 7.46419 4.64881 7.2859C4.81966 7.10762 5.09668 7.10762 5.26753 7.2859L6.12484 8.18044L7.42847 6.82013L8.73216 5.4598C8.90302 5.28152 9.17999 5.28152 9.35085 5.4598Z" fill="#FFFFFF"/>
</svg>
