<svg xmlns="http://www.w3.org/2000/svg" width="14" height="14" viewBox="0 0 14 14" fill="none">
  <path d="M5.24984 1.16667H2.33317C1.68884 1.16667 1.1665 1.689 1.1665 2.33333V6.41667C1.1665 7.061 1.68884 7.58333 2.33317 7.58333H5.24984C5.89417 7.58333 6.4165 7.061 6.4165 6.41667V2.33333C6.4165 1.689 5.89417 1.16667 5.24984 1.16667Z" fill="#FFFFFF"/>
  <path d="M11.6668 1.16667H8.75016C8.10583 1.16667 7.5835 1.689 7.5835 2.33333V4.08333C7.5835 4.72767 8.10583 5.25 8.75016 5.25H11.6668C12.3112 5.25 12.8335 4.72767 12.8335 4.08333V2.33333C12.8335 1.689 12.3112 1.16667 11.6668 1.16667Z" fill="#FFFFFF"/>
  <path d="M5.24984 8.75H2.33317C1.68884 8.75 1.1665 9.27233 1.1665 9.91667V11.6667C1.1665 12.311 1.68884 12.8333 2.33317 12.8333H5.24984C5.89417 12.8333 6.4165 12.311 6.4165 11.6667V9.91667C6.4165 9.27233 5.89417 8.75 5.24984 8.75Z" fill="#FFFFFF"/>
  <path d="M11.6668 6.41667H8.75016C8.10583 6.41667 7.5835 6.939 7.5835 7.58333V11.6667C7.5835 12.311 8.10583 12.8333 8.75016 12.8333H11.6668C12.3112 12.8333 12.8335 12.311 12.8335 11.6667V7.58333C12.8335 6.939 12.3112 6.41667 11.6668 6.41667Z" fill="#FFFFFF"/>
</svg>
