<svg xmlns="http://www.w3.org/2000/svg" width="21" height="21" viewBox="0 0 21 21" fill="none">
  <path d="M16.7345 5.25V13.7812C16.7345 14.0423 16.6308 14.2927 16.4461 14.4773C16.2615 14.6619 16.0112 14.7656 15.7501 14.7656C15.489 14.7656 15.2386 14.6619 15.054 14.4773C14.8694 14.2927 14.7657 14.0423 14.7657 13.7812V7.62891L5.94653 16.4464C5.76161 16.6314 5.51079 16.7353 5.24927 16.7353C4.98774 16.7353 4.73693 16.6314 4.552 16.4464C4.36707 16.2615 4.26318 16.0107 4.26318 15.7492C4.26318 15.4877 4.36707 15.2368 4.552 15.0519L13.3712 6.23438H7.21884C6.95776 6.23438 6.70738 6.13066 6.52278 5.94606C6.33817 5.76145 6.23446 5.51107 6.23446 5.25C6.23446 4.98893 6.33817 4.73855 6.52278 4.55394C6.70738 4.36934 6.95776 4.26563 7.21884 4.26562H15.7501C16.0112 4.26562 16.2615 4.36934 16.4461 4.55394C16.6308 4.73855 16.7345 4.98893 16.7345 5.25Z" fill="#FFFFFF"/>
</svg>
