<svg xmlns="http://www.w3.org/2000/svg" viewBox="0 0 1023 1023" fill="none" preserveAspectRatio="xMidYMid meet">
  <path d="M105.683 571.439C107.39 569.56 130.238 570.544 134.372 570.574L184.757 570.936L337.892 572.003C347.032 572.07 396.773 573.772 402.079 571.067C406.142 568.996 411.015 565.867 413.788 562.217C416.312 558.895 418.066 554.832 420.087 551.183C424.448 543.312 428.661 535.327 433.064 527.491L508.34 394.608L534.633 347.949C542.32 334.122 549.073 313.947 568.04 313.943C590.2 313.936 612.363 314.158 634.528 314.305L765.747 315.219C774.464 315.278 845.43 314.867 849.071 316.087C855.488 324.744 859.424 335.675 864.636 344.984C873.162 360.667 882.451 378.596 890.147 394.502C894.058 402.587 917.912 444.908 918.024 450.175C894.908 450.736 869.564 450.096 846.259 449.941L719.751 449.05L670.325 448.696C660.349 448.623 650.37 448.287 640.431 449.18C634.775 449.692 626.935 456.258 624.17 461.069C616.637 474.173 609.671 487.895 602.108 500.989C577.966 542.805 554.732 585.178 530.974 627.221L512.451 659.395L501.252 679.336C496.933 687.119 494.879 694.134 487.948 700.135C478.966 707.911 472.317 707.042 461.392 706.886L440.677 706.771L361.506 706.209L235.035 705.309L199.234 705.09C192.19 705.091 183.328 705.395 176.467 704.975L131.668 620.758C122.591 603.84 114.029 589.059 105.683 571.439Z" fill="url(#cta-bg-paint0)" fill-opacity="0.05"/>
  <path d="M167.566 441.15L168.03 374.192C168.094 362.361 167.908 350.107 168.503 338.31C168.672 334.964 169.674 330.696 171.145 327.944C174.249 322.129 185.305 313.379 191.772 312.153C199.189 310.751 213.163 311.353 220.974 311.406L264.292 311.703C323.064 312.106 381.868 312.504 440.639 312.951C442.389 312.963 444.908 312.797 446.362 313.591C443.797 319.751 440.467 324.489 437.163 330.238L422.724 355.751L394.954 405.072C390.753 412.521 387.106 420.266 382.389 427.454C377.368 435.11 373.142 441.885 362.963 442.192C354.093 442.463 345.244 442.279 336.391 442.238L279.426 441.857L208.397 441.559C197.039 441.516 178.578 441.989 167.566 441.15Z" fill="url(#cta-bg-paint1)" fill-opacity="0.05"/>
  <path d="M593.619 706.472C595.271 702.725 598.513 699.236 600.397 695.619C612.457 672.49 626.462 649.755 639.025 626.982L653.21 601.832C659.529 590.752 663.898 579.134 679.041 578.403C689.924 577.879 700.855 578.26 711.754 578.352L774.15 578.831L827.789 579.332C835.138 579.354 847.653 578.688 854.232 579.562C855.177 580.629 854.846 580.513 854.848 582.376C854.021 614.026 854.474 645.611 854.096 677.656C853.894 694.804 843.336 707.263 825.503 709.617C818.947 710.483 808.372 709.565 801.395 709.511L747.393 709.078L647.608 708.074C631.052 707.911 614.468 708.299 597.88 707.658C595.992 707.585 595.079 707.679 593.619 706.472Z" fill="url(#cta-bg-paint2)" fill-opacity="0.05"/>
  <defs>
    <linearGradient id="cta-bg-paint0" x1="513.208" y1="313.165" x2="510.506" y2="707.43" gradientUnits="userSpaceOnUse">
      <stop stop-color="white"/>
      <stop offset="1" stop-color="white" stop-opacity="0"/>
    </linearGradient>
    <linearGradient id="cta-bg-paint1" x1="307.372" y1="311.913" x2="306.477" y2="442.488" gradientUnits="userSpaceOnUse">
      <stop stop-color="white"/>
      <stop offset="1" stop-color="white" stop-opacity="0"/>
    </linearGradient>
    <linearGradient id="cta-bg-paint2" x1="724.709" y1="578.286" x2="723.811" y2="709.342" gradientUnits="userSpaceOnUse">
      <stop stop-color="white"/>
      <stop offset="1" stop-color="white" stop-opacity="0"/>
    </linearGradient>
  </defs>
</svg>
