<svg xmlns="http://www.w3.org/2000/svg" width="17" height="16" viewBox="0 0 17 16" fill="none">
  <path fill-rule="evenodd" clip-rule="evenodd" d="M2.30225 14.6667C2.30225 14.3905 2.5401 14.1667 2.8335 14.1667H14.1668C14.4602 14.1667 14.6981 14.3905 14.6981 14.6667C14.6981 14.9428 14.4602 15.1667 14.1668 15.1667H2.8335C2.5401 15.1667 2.30225 14.9428 2.30225 14.6667Z" fill="#88FF6A"/>
  <path d="M8.16023 9.95267L12.3512 6.00817C11.7808 5.78474 11.1052 5.41771 10.4663 4.81637C9.8273 4.21492 9.43729 3.57898 9.19993 3.04208L5.00883 6.9866C4.6818 7.2944 4.51824 7.44834 4.37761 7.61807C4.21171 7.8182 4.06947 8.0348 3.95342 8.264C3.85505 8.45827 3.78191 8.6648 3.63565 9.0778L2.86435 11.2555C2.79237 11.4588 2.84857 11.6829 3.00952 11.8343C3.17047 11.9858 3.40854 12.0387 3.62447 11.9709L5.93836 11.2451C6.37715 11.1074 6.59656 11.0385 6.80298 10.9459C7.04649 10.8367 7.27666 10.7029 7.4893 10.5467C7.66964 10.4143 7.8332 10.2605 8.16023 9.95267Z" fill="#88FF6A"/>
  <path d="M13.5139 4.91364C14.3841 4.0946 14.3841 2.76667 13.5139 1.94762C12.6437 1.12858 11.2328 1.12858 10.3626 1.94762L9.85986 2.42071C9.86673 2.44028 9.87389 2.46011 9.88133 2.4802C10.0656 2.98001 10.4131 3.63522 11.0671 4.25069C11.7211 4.86616 12.4172 5.19334 12.9483 5.36674C12.9695 5.37368 12.9905 5.38037 13.0112 5.38682L13.5139 4.91364Z" fill="#88FF6A"/>
</svg>
