<svg xmlns="http://www.w3.org/2000/svg" width="11" height="11" viewBox="0 0 11 11" fill="none">
  <path d="M7.24004 8.57316C7.3369 8.67003 7.39132 8.8014 7.39132 8.93839C7.39132 9.07538 7.3369 9.20676 7.24004 9.30363C7.14317 9.4005 7.01179 9.45491 6.8748 9.45491C6.73781 9.45491 6.60643 9.4005 6.50957 9.30363L3.07207 5.86613C3.024 5.81823 2.98586 5.7613 2.95983 5.69863C2.93381 5.63595 2.92041 5.56876 2.92041 5.50089C2.92041 5.43303 2.93381 5.36583 2.95983 5.30316C2.98586 5.24048 3.024 5.18356 3.07207 5.13566L6.50957 1.69816C6.60643 1.60129 6.73781 1.54687 6.8748 1.54688C7.01179 1.54688 7.14317 1.60129 7.24004 1.69816C7.3369 1.79503 7.39132 1.9264 7.39132 2.06339C7.39132 2.20038 7.3369 2.33176 7.24004 2.42863L4.1682 5.50046L7.24004 8.57316Z" fill="white"/>
</svg>
