<svg xmlns="http://www.w3.org/2000/svg" width="28" height="28" viewBox="0 0 28 28" fill="none">
  <path d="M25.5265 5.51791L18.8998 24.0912C18.7413 24.5525 18.4422 24.9525 18.0446 25.235C17.647 25.5175 17.1709 25.6683 16.6832 25.6662C16.2011 25.6717 15.7291 25.5277 15.3321 25.2541C14.9352 24.9804 14.6328 24.5905 14.4665 24.1379L11.9932 17.6979L13.7898 15.9012L16.6948 12.9962C16.9145 12.7766 17.0379 12.4786 17.0379 12.1679C17.0379 11.8572 16.9145 11.5593 16.6948 11.3396C16.4751 11.1199 16.1772 10.9965 15.8665 10.9965C15.5558 10.9965 15.2578 11.1199 15.0382 11.3396L12.1332 14.2446L10.2898 16.0529L3.86149 13.5679C3.38145 13.4233 2.96074 13.1279 2.6617 12.7255C2.36265 12.3231 2.20117 11.8351 2.20117 11.3337C2.20117 10.8324 2.36265 10.3444 2.6617 9.94196C2.96074 9.53956 3.38145 9.24418 3.86149 9.09957L22.4815 2.47291C22.9073 2.29796 23.3753 2.25289 23.8267 2.34334C24.2781 2.4338 24.6926 2.65576 25.0181 2.98127C25.3436 3.30678 25.5656 3.72131 25.6561 4.17268C25.7465 4.62405 25.7014 5.0921 25.5265 5.51791Z" fill="#0F0F0F"/>
</svg>
