<svg xmlns="http://www.w3.org/2000/svg" width="18" height="18" viewBox="0 0 18 18" fill="none">
  <g clip-path="url(#clip_deals_open_chat)">
    <path d="M9 17.25C13.5563 17.25 17.25 13.5563 17.25 9C17.25 4.44365 13.5563 0.75 9 0.75C4.44365 0.75 0.75 4.44365 0.75 9C0.75 10.3197 1.05989 11.5671 1.61086 12.6733C1.75727 12.9673 1.80601 13.3033 1.72112 13.6205L1.22975 15.457C1.01644 16.2542 1.74579 16.9835 2.54301 16.7702L4.37949 16.2789C4.69675 16.194 5.03275 16.2427 5.32671 16.3891C6.4329 16.9401 7.6803 17.25 9 17.25Z" fill="#88FF6A"/>
    <path d="M8.1748 9.00078C8.1748 9.45641 8.54418 9.82578 8.9998 9.82578C9.45543 9.82578 9.82481 9.45641 9.82481 9.00078C9.82481 8.54516 9.45543 8.17578 8.9998 8.17578C8.54418 8.17578 8.1748 8.54516 8.1748 9.00078Z" fill="#0F0F0F"/>
    <path d="M4.875 9.00078C4.875 9.45641 5.24437 9.82578 5.7 9.82578C6.15563 9.82578 6.525 9.45641 6.525 9.00078C6.525 8.54516 6.15563 8.17578 5.7 8.17578C5.24437 8.17578 4.875 8.54516 4.875 9.00078Z" fill="#0F0F0F"/>
    <path d="M11.4746 9.00078C11.4746 9.45641 11.844 9.82578 12.2996 9.82578C12.7552 9.82578 13.1246 9.45641 13.1246 9.00078C13.1246 8.54516 12.7552 8.17578 12.2996 8.17578C11.844 8.17578 11.4746 8.54516 11.4746 9.00078Z" fill="#0F0F0F"/>
  </g>
  <defs>
    <clipPath id="clip_deals_open_chat">
      <rect width="18" height="18" fill="white"/>
    </clipPath>
  </defs>
</svg>
