<svg xmlns="http://www.w3.org/2000/svg" width="17" height="17" viewBox="0 0 17 17" fill="none">
  <path fill-rule="evenodd" clip-rule="evenodd" d="M8.49984 15.5833C12.4118 15.5833 15.5832 12.412 15.5832 8.5C15.5832 4.58799 12.4118 1.41667 8.49984 1.41667C4.58782 1.41667 1.4165 4.58799 1.4165 8.5C1.4165 12.412 4.58782 15.5833 8.49984 15.5833ZM9.03109 4.25001C9.03109 3.95661 8.79323 3.71876 8.49984 3.71876C8.20645 3.71876 7.96859 3.95661 7.96859 4.25001V4.47436C6.8137 4.68115 5.84359 5.54881 5.84359 6.72917C5.84359 8.08719 7.12765 9.03125 8.49984 9.03125C9.47486 9.03125 10.0936 9.67279 10.0936 10.2708C10.0936 10.8689 9.47486 11.5104 8.49984 11.5104C7.52482 11.5104 6.90609 10.8689 6.90609 10.2708C6.90609 9.97745 6.66824 9.73959 6.37484 9.73959C6.08144 9.73959 5.84359 9.97745 5.84359 10.2708C5.84359 11.4512 6.8137 12.3188 7.96859 12.5257V12.75C7.96859 13.0434 8.20645 13.2813 8.49984 13.2813C8.79323 13.2813 9.03109 13.0434 9.03109 12.75V12.5257C10.186 12.3188 11.1561 11.4512 11.1561 10.2708C11.1561 8.91282 9.87202 7.96875 8.49984 7.96875C7.52482 7.96875 6.90609 7.32722 6.90609 6.72917C6.90609 6.13115 7.52482 5.48959 8.49984 5.48959C9.47486 5.48959 10.0936 6.13115 10.0936 6.72917C10.0936 7.02257 10.3314 7.26042 10.6248 7.26042C10.9182 7.26042 11.1561 7.02257 11.1561 6.72917C11.1561 5.54881 10.186 4.68115 9.03109 4.47436V4.25001Z" fill="#88FF6A"/>
</svg>
