<svg xmlns="http://www.w3.org/2000/svg" width="17" height="17" viewBox="0 0 17 17" fill="none">
  <path fill-rule="evenodd" clip-rule="evenodd" d="M15.5832 8.5C15.5832 12.412 12.4118 15.5833 8.49984 15.5833C4.58782 15.5833 1.4165 12.412 1.4165 8.5C1.4165 4.58799 4.58782 1.41667 8.49984 1.41667C12.4118 1.41667 15.5832 4.58799 15.5832 8.5ZM11.3546 6.35352C11.5621 6.56099 11.5621 6.89736 11.3546 7.1048L7.81297 10.6465C7.6055 10.8539 7.26918 10.8539 7.06169 10.6465L5.64502 9.2298C5.43756 9.02233 5.43756 8.68601 5.64502 8.47854C5.85248 8.27107 6.18886 8.27107 6.39632 8.47854L7.43734 9.51951L9.02032 7.93653L10.6034 6.35352C10.8108 6.14606 11.1472 6.14606 11.3546 6.35352Z" fill="#88FF6A"/>
</svg>
