<svg xmlns="http://www.w3.org/2000/svg" width="17" height="17" viewBox="0 0 17 17" fill="none">
  <path d="M15.5832 9.91667V8.5C15.5832 7.90571 15.5832 7.3775 15.574 6.90625H1.42564C1.4165 7.3775 1.4165 7.90571 1.4165 8.5V9.91667C1.4165 12.5879 1.4165 13.9236 2.24637 14.7535C3.07624 15.5833 4.41188 15.5833 7.08317 15.5833H9.9165C12.5878 15.5833 13.9235 15.5833 14.7533 14.7535C15.5832 13.9236 15.5832 12.5879 15.5832 9.91667Z" fill="#88FF6A"/>
  <path d="M5.48943 1.77083C5.48943 1.47743 5.25158 1.23958 4.95818 1.23958C4.66478 1.23958 4.42693 1.47743 4.42693 1.77083V2.88947C3.40741 2.97111 2.7381 3.17147 2.24638 3.66319C1.75465 4.15492 1.55429 4.82422 1.47266 5.84375H15.527C15.4454 4.82422 15.245 4.15492 14.7533 3.66319C14.2616 3.17147 13.5923 2.97111 12.5728 2.88947V1.77083C12.5728 1.47743 12.3349 1.23958 12.0415 1.23958C11.7481 1.23958 11.5103 1.47743 11.5103 1.77083V2.84247C11.039 2.83333 10.5108 2.83333 9.91651 2.83333H7.08318C6.48887 2.83333 5.96066 2.83333 5.48943 2.84247V1.77083Z" fill="#88FF6A"/>
</svg>
