<svg xmlns="http://www.w3.org/2000/svg" width="12" height="12" viewBox="0 0 12 12" fill="none">
  <path d="M9.56297 3V7.875C9.56297 8.02418 9.5037 8.16726 9.39821 8.27275C9.29273 8.37824 9.14965 8.4375 9.00047 8.4375C8.85128 8.4375 8.70821 8.37824 8.60272 8.27275C8.49723 8.16726 8.43797 8.02418 8.43797 7.875V4.35938L3.39844 9.39797C3.29276 9.50364 3.14944 9.56301 3 9.56301C2.85056 9.56301 2.70723 9.50364 2.60156 9.39797C2.49589 9.2923 2.43652 9.14897 2.43652 8.99953C2.43652 8.85009 2.49589 8.70677 2.60156 8.60109L7.64109 3.5625H4.12547C3.97628 3.5625 3.83321 3.50324 3.72772 3.39775C3.62223 3.29226 3.56297 3.14918 3.56297 3C3.56297 2.85082 3.62223 2.70774 3.72772 2.60225C3.83321 2.49676 3.97628 2.4375 4.12547 2.4375H9.00047C9.14965 2.4375 9.29273 2.49676 9.39821 2.60225C9.5037 2.70774 9.56297 2.85082 9.56297 3Z" fill="#FFFFFF"/>
</svg>
